# xmcd CD database file
#
# Track frame offsets:
#	150
#	15475
#	35975
#	51209
#	74900
#	96737
#	124024
#	149600
#	172496
#
# Disc length: 2657 seconds
#
# Revision: 0
# Processed by: cddbd v1.5.2PL0 Copyright (c) Steve Scherf et al.
# Submitted via: CDex 1.51
#
DISCID=980a5f09
DTITLE=Fasoli Claudio, Wheeler Kenny, Clark J.F. Jenny - Land
DYEAR=1989
DGENRE=Jazz
TTITLE0=The Land Of Long White Clouds
TTITLE1=Fax
TTITLE2=Kitsch
TTITLE3=Dear K
TTITLE4=Afternoons
TTITLE5=Kammertrio
TTITLE6=Tang
TTITLE7=Ufo
TTITLE8=Beedie's Time
EXTD=YEAR: 1989
EXTT0=
EXTT1=
EXTT2=
EXTT3=
EXTT4=
EXTT5=
EXTT6=
EXTT7=
EXTT8=
PLAYORDER=
